<?xml version="1.0" encoding="UTF-8"?>
<svg xmlns="http://www.w3.org/2000/svg" viewBox="0 0 1000 833" fill="red" stroke="none">
  <path d="M 359.38,18.75 L 400.00,93.12 L 460.62,129.38 L 366.25,150.62 L 303.75,188.75 L 362.50,191.88 L 296.25,238.12 L 238.12,323.12 L 230.00,358.75 L 288.12,317.50 L 253.12,408.12 L 246.88,484.38 L 258.75,531.88 L 291.25,472.50 L 328.12,565.62 L 481.25,828.12 L 658.75,471.88 L 700.00,418.75 L 582.50,431.25 L 553.12,477.50 L 589.38,481.88 L 509.38,640.62 L 491.25,573.12 L 403.12,397.50 L 413.12,304.38 L 460.62,250.00 L 524.38,233.75 L 448.12,286.25 L 589.38,286.25 L 540.00,316.88 L 638.75,310.62 L 685.62,335.00 L 666.88,363.12 L 701.88,363.75 L 745.00,331.88 L 746.25,297.50 L 606.25,251.88 L 666.25,238.75 L 722.50,265.62 L 764.38,261.88 L 778.12,284.38 L 794.38,236.88 L 785.00,207.50 L 683.12,186.88 L 671.25,141.88 L 590.62,79.38 L 595.00,118.12 L 548.12,103.75 L 490.62,67.50 L 446.88,12.50 L 485.00,96.25 L 406.88,66.88 Z"/>
</svg>
